<?xml version="1.0" encoding="UTF-8" standalone="no"?> <svg id="Layer_1" data-name="Layer 1" xmlns="http://www.w3.org/2000/svg" viewBox="0 0 512 512"><defs><style>.cls-1{fill:#efeae6;}.cls-2{fill:#ffd38d;}.cls-3{fill:#6d4135;}</style></defs><title>layers-filled</title><polygon class="cls-1" points="256 490.67 21.33 362.67 256 234.67 490.67 362.67 256 490.67"/><polygon class="cls-1" points="256 384 21.33 256 256 128 490.67 256 256 384"/><polygon class="cls-2" points="256 277.34 21.33 149.34 256 21.34 490.67 149.34 256 277.34"/><path class="cls-3" d="M512,256a21.34,21.34,0,0,0-11.12-18.73l-63.44-34.6,63.44-34.6a21.33,21.33,0,0,0,0-37.46L266.21,2.61a21.3,21.3,0,0,0-20.43,0l-234.67,128a21.33,21.33,0,0,0,0,37.46l63.44,34.6-63.44,34.6a21.33,21.33,0,0,0,0,37.46l63.44,34.6-63.44,34.6a21.33,21.33,0,0,0,0,37.46l234.67,128a21.33,21.33,0,0,0,20.43,0l234.67-128a21.33,21.33,0,0,0,0-37.46l-63.44-34.6,63.44-34.6A21.34,21.34,0,0,0,512,256ZM256,45.64l190.11,103.7L256,253,65.89,149.34Zm190.11,317L256,466.37,65.89,362.67l53.23-29,126.67,69.09a21.33,21.33,0,0,0,20.43,0l126.67-69.09ZM256,359.7,65.89,256l53.23-29,126.67,69.09a21.34,21.34,0,0,0,20.43,0L392.89,227l53.23,29Z"/></svg>